<svg width="253" height="99" viewBox="0 0 253 99" fill="none" xmlns="http://www.w3.org/2000/svg">
    <path d="M238.467 17.867v-2.48l1.827-.387V3.133l-1.827-.387V.254h14.069v5.08h-3.206l-.097-1.814h-4.693v3.617h5.625v3.254h-5.625v4.198h4.923l.097-1.9h3.169v5.178h-14.262zM221.266 17.867v-2.48l1.826-.387V3.133l-1.826-.387V.242h8.661c1.395 0 2.605.222 3.629.665 1.024.444 1.814 1.077 2.371 1.9.556.814.835 1.782.835 2.903a5.267 5.267 0 0 1-.847 2.879c-.557.887-1.323 1.6-2.299 2.14-.975.533-2.088.795-3.338.787l-2.94-.036V15l1.827.387v2.48h-7.899zm11.153 0-2.371-6.871 3.689-1.258 2.142 5.238 1.669.423v2.468h-5.129zm-5.081-9.641h2.637c.823 0 1.456-.19 1.899-.569.444-.387.666-.943.666-1.67 0-.75-.226-1.35-.678-1.802-.451-.46-1.096-.689-1.935-.689h-2.589v4.73zM211.262 18.121c-1.516 0-2.839-.242-3.968-.726-1.121-.492-1.988-1.21-2.601-2.153-.613-.944-.919-2.097-.919-3.46V3.133l-1.815-.387V.254h7.887v2.492l-1.826.387v8.65c0 .709.125 1.298.375 1.765.25.46.613.803 1.088 1.029.484.225 1.069.338 1.754.338.71 0 1.303-.113 1.779-.338a2.285 2.285 0 0 0 1.088-1.029c.25-.467.375-1.056.375-1.766V3.133l-1.814-.387V.254h7.887v2.492l-1.827.387v8.65c0 1.338-.314 2.483-.943 3.435-.629.943-1.504 1.665-2.625 2.165-1.113.492-2.411.738-3.895.738zM188.972 17.867v-2.48L190.81 15V3.544h-2.721l-.109 1.9h-3.206V.254h16.367v5.19h-3.242l-.097-1.9h-2.746V15l1.839.387v2.48h-7.923zM174.416 18.121c-1.516 0-2.839-.242-3.968-.726-1.121-.492-1.988-1.21-2.601-2.153-.613-.944-.919-2.097-.919-3.46V3.133l-1.815-.387V.254H173v2.492l-1.826.387v8.65c0 .709.125 1.298.375 1.765.25.46.613.803 1.088 1.029.484.225 1.069.338 1.755.338.709 0 1.302-.113 1.778-.338a2.28 2.28 0 0 0 1.088-1.029c.25-.467.375-1.056.375-1.766V3.133l-1.814-.387V.254h7.887v2.492l-1.827.387v8.65c0 1.338-.314 2.483-.943 3.435-.629.943-1.504 1.665-2.625 2.165-1.113.492-2.411.738-3.895.738zM149.677 17.867v-2.48l1.827-.387V3.133l-1.827-.387V.254h14.505v5.19h-3.206l-.085-1.924h-5.141v4.077h5.988v3.242h-5.988V15l1.827.387v2.48h-7.9zM124.903 17.867v-2.48L126.73 15V3.133l-1.827-.387V.242h8.662c1.395 0 2.604.222 3.629.665 1.024.444 1.814 1.077 2.371 1.9.556.814.834 1.782.834 2.903a5.266 5.266 0 0 1-.846 2.879c-.557.887-1.323 1.6-2.299 2.14-.976.533-2.089.795-3.339.787l-2.939-.036V15l1.827.387v2.48h-7.9zm11.154 0-2.371-6.871 3.689-1.258 2.141 5.238 1.67.423v2.468h-5.129zm-5.081-9.641h2.637c.823 0 1.456-.19 1.899-.569.444-.387.666-.943.666-1.67 0-.75-.226-1.35-.678-1.802-.452-.46-1.097-.689-1.935-.689h-2.589v4.73zM114.674 18.121c-1.516 0-2.839-.242-3.968-.726-1.121-.492-1.988-1.21-2.601-2.153-.612-.944-.919-2.097-.919-3.46V3.133l-1.814-.387V.254h7.887v2.492l-1.827.387v8.65c0 .709.125 1.298.375 1.765.25.46.613.803 1.089 1.029.484.225 1.068.338 1.754.338.709 0 1.302-.113 1.778-.338a2.287 2.287 0 0 0 1.089-1.029c.25-.467.375-1.056.375-1.766V3.133l-1.815-.387V.254h7.887v2.492l-1.826.387v8.65c0 1.338-.315 2.483-.944 3.435-.629.943-1.504 1.665-2.625 2.165-1.113.492-2.411.738-3.895.738zM97.053 18.121c-1.218 0-2.339-.222-3.363-.665a8.034 8.034 0 0 1-2.65-1.887 8.6 8.6 0 0 1-1.741-2.831c-.403-1.089-.605-2.27-.605-3.544v-.279c0-1.266.202-2.44.605-3.52a8.706 8.706 0 0 1 1.73-2.83A8.035 8.035 0 0 1 93.678.677C94.694.226 95.811 0 97.028 0c1.194 0 2.303.226 3.327.677a8.26 8.26 0 0 1 2.686 1.888 8.612 8.612 0 0 1 1.802 2.83c.428 1.08.641 2.254.641 3.52v.279c0 1.274-.213 2.455-.641 3.544a8.713 8.713 0 0 1-1.79 2.83 8.259 8.259 0 0 1-2.686 1.888 8.245 8.245 0 0 1-3.314.665zm0-3.218c.887 0 1.645-.238 2.274-.713.63-.476 1.109-1.142 1.44-1.996.33-.855.496-1.855.496-3V8.89c0-1.12-.17-2.105-.508-2.951-.331-.855-.81-1.52-1.44-1.996-.629-.476-1.391-.714-2.286-.714-.944 0-1.718.234-2.323.701-.597.468-1.04 1.125-1.33 1.972-.29.847-.436 1.843-.436 2.988v.303c0 1.145.145 2.149.436 3.012.298.854.75 1.52 1.354 1.996.613.467 1.388.701 2.323.701zM76.343 17.867v-2.48L78.169 15v-2.94L73.064 3l-1.838-.254V.254h7.62v2.492l-1.088.194 2.42 4.826.278.617h.108l.29-.58 2.832-4.863-1.84-.194V.254h7.477v2.492L87.46 3l-5.057 8.722V15l1.839.387v2.48h-7.9zM44.239 17.867v-2.48L46.053 15V3.133l-1.814-.387V.254h6.133l7.064 11.274h.073V3.133l-2.31-.387V.254h7.898v2.492l-1.826.387v14.734h-4.186L49.888 6.835h-.073V15l2.323.387v2.48h-7.9zM22.577 17.867l-4.065-14.94-1.996-.181V.254h7.948v2.492l-1.96.278 1.923 7.875.279 1.137h.072l.29-1.149L28.517.254h2.928l3.629 11.13.254.761h.072l.206-.762 2.056-8.359-2.02-.278V.254h7.79v2.492l-1.875.181-4.245 14.94h-3.787l-3.036-9.109-.375-1.258h-.073l-.471 1.33-3.085 9.037h-3.907zM8.359 18.121c-1.218 0-2.339-.222-3.363-.665a8.035 8.035 0 0 1-2.65-1.887 8.6 8.6 0 0 1-1.741-2.831C.202 11.649 0 10.468 0 9.194v-.279c0-1.266.202-2.44.605-3.52a8.707 8.707 0 0 1 1.73-2.83A8.036 8.036 0 0 1 4.984.677C6 .226 7.117 0 8.334 0c1.194 0 2.303.226 3.327.677a8.268 8.268 0 0 1 2.686 1.888 8.617 8.617 0 0 1 1.802 2.83c.428 1.08.641 2.254.641 3.52v.279c0 1.274-.213 2.455-.64 3.544a8.72 8.72 0 0 1-1.791 2.83 8.268 8.268 0 0 1-2.686 1.888 8.249 8.249 0 0 1-3.314.665zm0-3.218c.887 0 1.645-.238 2.274-.713.63-.476 1.109-1.142 1.44-1.996.33-.855.495-1.855.495-3V8.89c0-1.12-.169-2.105-.508-2.951-.33-.855-.81-1.52-1.439-1.996-.63-.476-1.391-.714-2.286-.714-.944 0-1.718.234-2.323.701-.597.468-1.04 1.125-1.33 1.972-.29.847-.436 1.843-.436 2.988v.303c0 1.145.145 2.149.435 3.012.299.854.75 1.52 1.355 1.996.613.467 1.387.701 2.323.701zM194.368 95.286v-8.472l6.241-1.323V44.946l-6.241-1.323v-8.514h48.067v17.359h-10.952l-.331-6.2h-16.036v12.358h19.219v11.118h-19.219v14.342h16.821l.331-6.49h10.829v17.69h-48.729zM149.567 95.286v-8.472l6.282-1.323V46.35h-9.3l-.372 6.489h-10.952V35.109h55.92v17.73h-11.076l-.331-6.488h-9.382v39.14l6.282 1.323v8.472h-27.071zM34.873 95.286 16.026 44.284l-5.704-.661v-8.514h26.99v8.514l-5.374.827 10.788 33.808.578 2.356h.248l.538-2.232L54.546 44.45l-6.447-.827v-8.514H73.31v8.514l-5.868.661-16.863 51.002H34.873z" fill="#1E1E1E"/>
    <circle cx="102.194" cy="65.032" r="31.484" fill="#fff" stroke="#fff" stroke-width="3.097"/>
    <mask id="omg1e17rxa" style="mask-type:alpha" maskUnits="userSpaceOnUse" x="69" y="32" width="67" height="67">
        <circle cx="102.194" cy="65.032" r="33.032" fill="#D9D9D9"/>
    </mask>
    <g mask="url(#omg1e17rxa)">
        <path fill="#DA1F28" d="M104.734 58.256h30.491v12.705h-30.491zM104.734 33.694h30.491v12.705h-30.491zM71.702 82.819h63.524v12.705H71.702z"/>
        <path fill="#111A6E" d="M67.468 33.694h37.267v37.267H67.468z"/>
        <path d="m88.642 48.093 1.14 3.511h3.693l-2.987 2.17 1.14 3.512-2.986-2.17-2.987 2.17 1.14-3.512-2.987-2.17h3.693l1.14-3.511zM97.985 37.929l1.141 3.511h3.692l-2.987 2.17 1.141 3.512-2.987-2.17-2.987 2.17 1.141-3.511-2.987-2.17h3.692l1.141-3.512zM97.985 58.256l1.141 3.512h3.692l-2.987 2.17 1.141 3.511-2.987-2.17-2.987 2.17 1.141-3.511-2.987-2.17h3.692l1.141-3.512zM79.404 58.256l1.141 3.512h3.693l-2.987 2.17 1.14 3.511-2.987-2.17-2.987 2.17 1.141-3.511-2.987-2.17h3.692l1.141-3.512z" fill="#fff"/>
    </g>
    <circle cx="102.194" cy="65.032" r="31.484" stroke="#fff" stroke-width="3.097"/>
</svg>
